<svg id="visual" viewBox="0 0 960 300" width="960" height="300" xmlns="http://www.w3.org/2000/svg" xmlns:xlink="http://www.w3.org/1999/xlink" version="1.1"><path d="M0 97L14.5 99.5C29 102 58 107 87.2 107C116.3 107 145.7 102 174.8 95C204 88 233 79 262 76C291 73 320 76 349 83C378 90 407 101 436.2 98C465.3 95 494.7 78 523.8 75C553 72 582 83 611 87C640 91 669 88 698 93C727 98 756 111 785.2 111.5C814.3 112 843.7 100 872.8 99.5C902 99 931 110 945.5 115.5L960 121L960 0L945.5 0C931 0 902 0 872.8 0C843.7 0 814.3 0 785.2 0C756 0 727 0 698 0C669 0 640 0 611 0C582 0 553 0 523.8 0C494.7 0 465.3 0 436.2 0C407 0 378 0 349 0C320 0 291 0 262 0C233 0 204 0 174.8 0C145.7 0 116.3 0 87.2 0C58 0 29 0 14.5 0L0 0Z" fill="#17202a"></path><path d="M0 133L14.5 136C29 139 58 145 87.2 144C116.3 143 145.7 135 174.8 130.5C204 126 233 125 262 123.5C291 122 320 120 349 128C378 136 407 154 436.2 150C465.3 146 494.7 120 523.8 116.5C553 113 582 132 611 135C640 138 669 125 698 124.5C727 124 756 136 785.2 136.5C814.3 137 843.7 126 872.8 128.5C902 131 931 147 945.5 155L960 163L960 119L945.5 113.5C931 108 902 97 872.8 97.5C843.7 98 814.3 110 785.2 109.5C756 109 727 96 698 91C669 86 640 89 611 85C582 81 553 70 523.8 73C494.7 76 465.3 93 436.2 96C407 99 378 88 349 81C320 74 291 71 262 74C233 77 204 86 174.8 93C145.7 100 116.3 105 87.2 105C58 105 29 100 14.5 97.5L0 95Z" fill="#1b3149"></path><path d="M0 223L14.5 221C29 219 58 215 87.2 216C116.3 217 145.7 223 174.8 222.5C204 222 233 215 262 210C291 205 320 202 349 209C378 216 407 233 436.2 239C465.3 245 494.7 240 523.8 235C553 230 582 225 611 218C640 211 669 202 698 202C727 202 756 211 785.2 213C814.3 215 843.7 210 872.8 214C902 218 931 231 945.5 237.5L960 244L960 161L945.5 153C931 145 902 129 872.8 126.5C843.7 124 814.3 135 785.2 134.5C756 134 727 122 698 122.5C669 123 640 136 611 133C582 130 553 111 523.8 114.5C494.7 118 465.3 144 436.2 148C407 152 378 134 349 126C320 118 291 120 262 121.5C233 123 204 124 174.8 128.5C145.7 133 116.3 141 87.2 142C58 143 29 137 14.5 134L0 131Z" fill="#1f436b"></path><path d="M0 262L14.5 261C29 260 58 258 87.2 257.5C116.3 257 145.7 258 174.8 257.5C204 257 233 255 262 251.5C291 248 320 243 349 246C378 249 407 260 436.2 264.5C465.3 269 494.7 267 523.8 262C553 257 582 249 611 243.5C640 238 669 235 698 238.5C727 242 756 252 785.2 254.5C814.3 257 843.7 252 872.8 253C902 254 931 261 945.5 264.5L960 268L960 242L945.5 235.5C931 229 902 216 872.8 212C843.7 208 814.3 213 785.2 211C756 209 727 200 698 200C669 200 640 209 611 216C582 223 553 228 523.8 233C494.7 238 465.3 243 436.2 237C407 231 378 214 349 207C320 200 291 203 262 208C233 213 204 220 174.8 220.5C145.7 221 116.3 215 87.2 214C58 213 29 217 14.5 219L0 221Z" fill="#27558e"></path><path d="M0 301L14.5 301C29 301 58 301 87.2 301C116.3 301 145.7 301 174.8 301C204 301 233 301 262 301C291 301 320 301 349 301C378 301 407 301 436.2 301C465.3 301 494.7 301 523.8 301C553 301 582 301 611 301C640 301 669 301 698 301C727 301 756 301 785.2 301C814.3 301 843.7 301 872.8 301C902 301 931 301 945.5 301L960 301L960 266L945.5 262.5C931 259 902 252 872.8 251C843.7 250 814.3 255 785.2 252.5C756 250 727 240 698 236.5C669 233 640 236 611 241.5C582 247 553 255 523.8 260C494.7 265 465.3 267 436.2 262.5C407 258 378 247 349 244C320 241 291 246 262 249.5C233 253 204 255 174.8 255.5C145.7 256 116.3 255 87.2 255.5C58 256 29 258 14.5 259L0 260Z" fill="#3667b2"></path></svg>