<svg id="visual" viewBox="0 0 960 300" width="960" height="300" xmlns="http://www.w3.org/2000/svg" xmlns:xlink="http://www.w3.org/1999/xlink" version="1.1"><rect x="0" y="0" width="960" height="300" fill="#000"></rect><path d="M0 102L8.8 102C17.7 102 35.3 102 53.2 96.3C71 90.7 89 79.3 106.8 77.5C124.7 75.7 142.3 83.3 160 90.7C177.7 98 195.3 105 213.2 96.3C231 87.7 249 63.3 266.8 61.5C284.7 59.7 302.3 80.3 320 94.3C337.7 108.3 355.3 115.7 373.2 114C391 112.3 409 101.7 426.8 99.8C444.7 98 462.3 105 480 101.2C497.7 97.3 515.3 82.7 533.2 76.8C551 71 569 74 586.8 75C604.7 76 622.3 75 640 79.7C657.7 84.3 675.3 94.7 693.2 98.3C711 102 729 99 746.8 93.5C764.7 88 782.3 80 800 69.3C817.7 58.7 835.3 45.3 853.2 42.3C871 39.3 889 46.7 906.8 58.2C924.7 69.7 942.3 85.3 951.2 93.2L960 101L960 301L951.2 301C942.3 301 924.7 301 906.8 301C889 301 871 301 853.2 301C835.3 301 817.7 301 800 301C782.3 301 764.7 301 746.8 301C729 301 711 301 693.2 301C675.3 301 657.7 301 640 301C622.3 301 604.7 301 586.8 301C569 301 551 301 533.2 301C515.3 301 497.7 301 480 301C462.3 301 444.7 301 426.8 301C409 301 391 301 373.2 301C355.3 301 337.7 301 320 301C302.3 301 284.7 301 266.8 301C249 301 231 301 213.2 301C195.3 301 177.7 301 160 301C142.3 301 124.7 301 106.8 301C89 301 71 301 53.2 301C35.3 301 17.7 301 8.8 301L0 301Z" fill="#abb6ce"></path><path d="M0 88L8.8 91.5C17.7 95 35.3 102 53.2 110.5C71 119 89 129 106.8 128.8C124.7 128.7 142.3 118.3 160 117.5C177.7 116.7 195.3 125.3 213.2 122.5C231 119.7 249 105.3 266.8 101.3C284.7 97.3 302.3 103.7 320 104.7C337.7 105.7 355.3 101.3 373.2 102C391 102.7 409 108.3 426.8 113C444.7 117.7 462.3 121.3 480 122C497.7 122.7 515.3 120.3 533.2 110C551 99.7 569 81.3 586.8 79C604.7 76.7 622.3 90.3 640 96.2C657.7 102 675.3 100 693.2 97.3C711 94.7 729 91.3 746.8 88.7C764.7 86 782.3 84 800 89C817.7 94 835.3 106 853.2 106.8C871 107.7 889 97.3 906.8 88.5C924.7 79.7 942.3 72.3 951.2 68.7L960 65L960 301L951.2 301C942.3 301 924.7 301 906.8 301C889 301 871 301 853.2 301C835.3 301 817.7 301 800 301C782.3 301 764.7 301 746.8 301C729 301 711 301 693.2 301C675.3 301 657.7 301 640 301C622.3 301 604.7 301 586.8 301C569 301 551 301 533.2 301C515.3 301 497.7 301 480 301C462.3 301 444.7 301 426.8 301C409 301 391 301 373.2 301C355.3 301 337.7 301 320 301C302.3 301 284.7 301 266.8 301C249 301 231 301 213.2 301C195.3 301 177.7 301 160 301C142.3 301 124.7 301 106.8 301C89 301 71 301 53.2 301C35.3 301 17.7 301 8.8 301L0 301Z" fill="#96a1b7"></path><path d="M0 155L8.8 147.3C17.7 139.7 35.3 124.3 53.2 125.8C71 127.3 89 145.7 106.8 144.3C124.7 143 142.3 122 160 115C177.7 108 195.3 115 213.2 122.5C231 130 249 138 266.8 133.8C284.7 129.7 302.3 113.3 320 112.5C337.7 111.7 355.3 126.3 373.2 136.7C391 147 409 153 426.8 148.5C444.7 144 462.3 129 480 124.5C497.7 120 515.3 126 533.2 128.3C551 130.7 569 129.3 586.8 125.5C604.7 121.7 622.3 115.3 640 115.3C657.7 115.3 675.3 121.7 693.2 120.5C711 119.3 729 110.7 746.8 105.7C764.7 100.7 782.3 99.3 800 100.7C817.7 102 835.3 106 853.2 110.3C871 114.7 889 119.3 906.8 126.7C924.7 134 942.3 144 951.2 149L960 154L960 301L951.2 301C942.3 301 924.7 301 906.8 301C889 301 871 301 853.2 301C835.3 301 817.7 301 800 301C782.3 301 764.7 301 746.8 301C729 301 711 301 693.2 301C675.3 301 657.7 301 640 301C622.3 301 604.7 301 586.8 301C569 301 551 301 533.2 301C515.3 301 497.7 301 480 301C462.3 301 444.7 301 426.8 301C409 301 391 301 373.2 301C355.3 301 337.7 301 320 301C302.3 301 284.7 301 266.8 301C249 301 231 301 213.2 301C195.3 301 177.7 301 160 301C142.3 301 124.7 301 106.8 301C89 301 71 301 53.2 301C35.3 301 17.7 301 8.8 301L0 301Z" fill="#828da1"></path><path d="M0 148L8.8 153.5C17.7 159 35.3 170 53.2 166.3C71 162.7 89 144.3 106.8 136.5C124.7 128.7 142.3 131.3 160 134.2C177.7 137 195.3 140 213.2 148.5C231 157 249 171 266.8 175.5C284.7 180 302.3 175 320 172.2C337.7 169.3 355.3 168.7 373.2 168.7C391 168.7 409 169.3 426.8 161C444.7 152.7 462.3 135.3 480 132.3C497.7 129.3 515.3 140.7 533.2 151C551 161.3 569 170.7 586.8 165.7C604.7 160.7 622.3 141.3 640 141C657.7 140.7 675.3 159.3 693.2 169.3C711 179.3 729 180.7 746.8 171C764.7 161.3 782.3 140.7 800 141.2C817.7 141.7 835.3 163.3 853.2 169.7C871 176 889 167 906.8 157.5C924.7 148 942.3 138 951.2 133L960 128L960 301L951.2 301C942.3 301 924.7 301 906.8 301C889 301 871 301 853.2 301C835.3 301 817.7 301 800 301C782.3 301 764.7 301 746.8 301C729 301 711 301 693.2 301C675.3 301 657.7 301 640 301C622.3 301 604.7 301 586.8 301C569 301 551 301 533.2 301C515.3 301 497.7 301 480 301C462.3 301 444.7 301 426.8 301C409 301 391 301 373.2 301C355.3 301 337.7 301 320 301C302.3 301 284.7 301 266.8 301C249 301 231 301 213.2 301C195.3 301 177.7 301 160 301C142.3 301 124.7 301 106.8 301C89 301 71 301 53.2 301C35.3 301 17.7 301 8.8 301L0 301Z" fill="#6e798c"></path><path d="M0 165L8.8 161.7C17.7 158.3 35.3 151.7 53.2 151.2C71 150.7 89 156.3 106.8 161.5C124.7 166.7 142.3 171.3 160 171.8C177.7 172.3 195.3 168.7 213.2 165.7C231 162.7 249 160.3 266.8 157.7C284.7 155 302.3 152 320 156.5C337.7 161 355.3 173 373.2 171.7C391 170.3 409 155.7 426.8 155C444.7 154.3 462.3 167.7 480 178.2C497.7 188.7 515.3 196.3 533.2 197.5C551 198.7 569 193.3 586.8 191.7C604.7 190 622.3 192 640 188.5C657.7 185 675.3 176 693.2 167.5C711 159 729 151 746.8 147.2C764.7 143.3 782.3 143.7 800 145.8C817.7 148 835.3 152 853.2 159.7C871 167.3 889 178.7 906.8 177.8C924.7 177 942.3 164 951.2 157.5L960 151L960 301L951.2 301C942.3 301 924.7 301 906.8 301C889 301 871 301 853.2 301C835.3 301 817.7 301 800 301C782.3 301 764.7 301 746.8 301C729 301 711 301 693.2 301C675.3 301 657.7 301 640 301C622.3 301 604.7 301 586.8 301C569 301 551 301 533.2 301C515.3 301 497.7 301 480 301C462.3 301 444.7 301 426.8 301C409 301 391 301 373.2 301C355.3 301 337.7 301 320 301C302.3 301 284.7 301 266.8 301C249 301 231 301 213.2 301C195.3 301 177.7 301 160 301C142.3 301 124.7 301 106.8 301C89 301 71 301 53.2 301C35.3 301 17.7 301 8.8 301L0 301Z" fill="#5b6677"></path><path d="M0 169L8.8 174.7C17.7 180.3 35.3 191.7 53.2 192.2C71 192.7 89 182.3 106.8 181C124.7 179.7 142.3 187.3 160 195.7C177.7 204 195.3 213 213.2 216.7C231 220.3 249 218.7 266.8 215.3C284.7 212 302.3 207 320 199.7C337.7 192.3 355.3 182.7 373.2 183.2C391 183.7 409 194.3 426.8 196.8C444.7 199.3 462.3 193.7 480 196.8C497.7 200 515.3 212 533.2 211.5C551 211 569 198 586.8 192C604.7 186 622.3 187 640 187.8C657.7 188.7 675.3 189.3 693.2 191.3C711 193.3 729 196.7 746.8 196.5C764.7 196.3 782.3 192.7 800 192C817.7 191.3 835.3 193.7 853.2 197.2C871 200.7 889 205.3 906.8 204.2C924.7 203 942.3 196 951.2 192.5L960 189L960 301L951.2 301C942.3 301 924.7 301 906.8 301C889 301 871 301 853.2 301C835.3 301 817.7 301 800 301C782.3 301 764.7 301 746.8 301C729 301 711 301 693.2 301C675.3 301 657.7 301 640 301C622.3 301 604.7 301 586.8 301C569 301 551 301 533.2 301C515.3 301 497.7 301 480 301C462.3 301 444.7 301 426.8 301C409 301 391 301 373.2 301C355.3 301 337.7 301 320 301C302.3 301 284.7 301 266.8 301C249 301 231 301 213.2 301C195.3 301 177.7 301 160 301C142.3 301 124.7 301 106.8 301C89 301 71 301 53.2 301C35.3 301 17.7 301 8.8 301L0 301Z" fill="#495363"></path><path d="M0 197L8.8 197.5C17.7 198 35.3 199 53.2 199C71 199 89 198 106.8 199.3C124.7 200.7 142.3 204.3 160 205.5C177.7 206.7 195.3 205.3 213.2 204.5C231 203.7 249 203.3 266.8 209.3C284.7 215.3 302.3 227.7 320 226.8C337.7 226 355.3 212 373.2 211C391 210 409 222 426.8 228.3C444.7 234.7 462.3 235.3 480 230.8C497.7 226.3 515.3 216.7 533.2 215C551 213.3 569 219.7 586.8 223.8C604.7 228 622.3 230 640 232.3C657.7 234.7 675.3 237.3 693.2 231.3C711 225.3 729 210.7 746.8 204C764.7 197.3 782.3 198.7 800 203.8C817.7 209 835.3 218 853.2 221C871 224 889 221 906.8 223C924.7 225 942.3 232 951.2 235.5L960 239L960 301L951.2 301C942.3 301 924.7 301 906.8 301C889 301 871 301 853.2 301C835.3 301 817.7 301 800 301C782.3 301 764.7 301 746.8 301C729 301 711 301 693.2 301C675.3 301 657.7 301 640 301C622.3 301 604.7 301 586.8 301C569 301 551 301 533.2 301C515.3 301 497.7 301 480 301C462.3 301 444.7 301 426.8 301C409 301 391 301 373.2 301C355.3 301 337.7 301 320 301C302.3 301 284.7 301 266.8 301C249 301 231 301 213.2 301C195.3 301 177.7 301 160 301C142.3 301 124.7 301 106.8 301C89 301 71 301 53.2 301C35.3 301 17.7 301 8.8 301L0 301Z" fill="#37414f"></path><path d="M0 227L8.8 228.2C17.7 229.3 35.3 231.7 53.2 235.5C71 239.3 89 244.7 106.8 243.7C124.7 242.7 142.3 235.3 160 234.8C177.7 234.3 195.3 240.7 213.2 245.2C231 249.7 249 252.3 266.8 251.3C284.7 250.3 302.3 245.7 320 242C337.7 238.3 355.3 235.7 373.2 237.5C391 239.3 409 245.7 426.8 247.8C444.7 250 462.3 248 480 247.3C497.7 246.7 515.3 247.3 533.2 249.2C551 251 569 254 586.8 255.7C604.7 257.3 622.3 257.7 640 255.2C657.7 252.7 675.3 247.3 693.2 243.7C711 240 729 238 746.8 241.7C764.7 245.3 782.3 254.7 800 252.8C817.7 251 835.3 238 853.2 238.3C871 238.7 889 252.3 906.8 252.7C924.7 253 942.3 240 951.2 233.5L960 227L960 301L951.2 301C942.3 301 924.7 301 906.8 301C889 301 871 301 853.2 301C835.3 301 817.7 301 800 301C782.3 301 764.7 301 746.8 301C729 301 711 301 693.2 301C675.3 301 657.7 301 640 301C622.3 301 604.7 301 586.8 301C569 301 551 301 533.2 301C515.3 301 497.7 301 480 301C462.3 301 444.7 301 426.8 301C409 301 391 301 373.2 301C355.3 301 337.7 301 320 301C302.3 301 284.7 301 266.8 301C249 301 231 301 213.2 301C195.3 301 177.7 301 160 301C142.3 301 124.7 301 106.8 301C89 301 71 301 53.2 301C35.3 301 17.7 301 8.8 301L0 301Z" fill="#27303c"></path><path d="M0 261L8.8 261.2C17.7 261.3 35.3 261.7 53.2 263.3C71 265 89 268 106.8 271.3C124.7 274.7 142.3 278.3 160 277.2C177.7 276 195.3 270 213.2 265C231 260 249 256 266.8 259C284.7 262 302.3 272 320 272.5C337.7 273 355.3 264 373.2 259.7C391 255.3 409 255.7 426.8 255.8C444.7 256 462.3 256 480 258.7C497.7 261.3 515.3 266.7 533.2 270.5C551 274.3 569 276.7 586.8 273.7C604.7 270.7 622.3 262.3 640 263.7C657.7 265 675.3 276 693.2 280C711 284 729 281 746.8 278.5C764.7 276 782.3 274 800 271.2C817.7 268.3 835.3 264.7 853.2 265.7C871 266.7 889 272.3 906.8 275.5C924.7 278.7 942.3 279.3 951.2 279.7L960 280L960 301L951.2 301C942.3 301 924.7 301 906.8 301C889 301 871 301 853.2 301C835.3 301 817.7 301 800 301C782.3 301 764.7 301 746.8 301C729 301 711 301 693.2 301C675.3 301 657.7 301 640 301C622.3 301 604.7 301 586.8 301C569 301 551 301 533.2 301C515.3 301 497.7 301 480 301C462.3 301 444.7 301 426.8 301C409 301 391 301 373.2 301C355.3 301 337.7 301 320 301C302.3 301 284.7 301 266.8 301C249 301 231 301 213.2 301C195.3 301 177.7 301 160 301C142.3 301 124.7 301 106.8 301C89 301 71 301 53.2 301C35.3 301 17.7 301 8.8 301L0 301Z" fill="#17202a"></path></svg>