<svg id="visual" viewBox="0 0 900 900" width="900" height="900" xmlns="http://www.w3.org/2000/svg" xmlns:xlink="http://www.w3.org/1999/xlink" version="1.1"><path d="M0 174L18.8 165.7C37.7 157.3 75.3 140.7 112.8 165.2C150.3 189.7 187.7 255.3 225.2 289.5C262.7 323.7 300.3 326.3 337.8 353.7C375.3 381 412.7 433 450.2 433.5C487.7 434 525.3 383 562.8 344.8C600.3 306.7 637.7 281.3 675.2 307.2C712.7 333 750.3 410 787.8 392.8C825.3 375.7 862.7 264.3 881.3 208.7L900 153L900 0L881.3 0C862.7 0 825.3 0 787.8 0C750.3 0 712.7 0 675.2 0C637.7 0 600.3 0 562.8 0C525.3 0 487.7 0 450.2 0C412.7 0 375.3 0 337.8 0C300.3 0 262.7 0 225.2 0C187.7 0 150.3 0 112.8 0C75.3 0 37.7 0 18.8 0L0 0Z" fill="#0b3c65" stroke-linecap="round" stroke-linejoin="miter"></path></svg>